<mxfile host="app.diagrams.net" agent="Mozilla/5.0 (Windows NT 10.0; Win64; x64) AppleWebKit/537.36 (KHTML, like Gecko) Chrome/132.0.0.0 Safari/537.36" version="26.0.10">
  <diagram name="Page-1" id="qUiLAYDexzP6i4zpysKf">
    <mxGraphModel dx="1311" dy="1875" grid="1" gridSize="10" guides="1" tooltips="1" connect="1" arrows="1" fold="1" page="1" pageScale="1" pageWidth="850" pageHeight="1100" math="0" shadow="0">
      <root>
        <mxCell id="0" />
        <mxCell id="1" parent="0" />
        <mxCell id="2" value="Start" style="whiteSpace=wrap;strokeWidth=2;" parent="1" vertex="1">
          <mxGeometry x="8" y="64" width="95" height="54" as="geometry" />
        </mxCell>
        <mxCell id="3" value="preload_assets" style="rounded=1;arcSize=20;strokeWidth=2" parent="1" vertex="1">
          <mxGeometry x="153" y="64" width="131" height="54" as="geometry" />
        </mxCell>
        <mxCell id="4" value="PlayScene" style="rhombus;strokeWidth=2;whiteSpace=wrap;" parent="1" vertex="1">
          <mxGeometry x="540" y="0.27999999999999936" width="159" height="159" as="geometry" />
        </mxCell>
        <mxCell id="5" value="Press Spacebar" style="rounded=1;arcSize=20;strokeWidth=2" parent="1" vertex="1">
          <mxGeometry x="777" y="52.28" width="136" height="54" as="geometry" />
        </mxCell>
        <mxCell id="6" value="Avoid Obstacles" style="rhombus;strokeWidth=2;whiteSpace=wrap;" parent="1" vertex="1">
          <mxGeometry x="963" y="-3.7200000000000006" width="166" height="166" as="geometry" />
        </mxCell>
        <mxCell id="7" value="Score Points" style="rhombus;strokeWidth=2;whiteSpace=wrap;" parent="1" vertex="1">
          <mxGeometry x="1206" y="9.28" width="141" height="141" as="geometry" />
        </mxCell>
        <mxCell id="8" value="Game Over" style="rounded=1;arcSize=20;strokeWidth=2" parent="1" vertex="1">
          <mxGeometry x="1420" y="52.28" width="110" height="54" as="geometry" />
        </mxCell>
        <mxCell id="9" value="Play Again" style="rounded=1;arcSize=20;strokeWidth=2" parent="1" vertex="1">
          <mxGeometry x="1580" y="52.28" width="103" height="54" as="geometry" />
        </mxCell>
        <mxCell id="10" value="High Score?" style="rhombus;strokeWidth=2;whiteSpace=wrap;" parent="1" vertex="1">
          <mxGeometry x="1733" y="11.28" width="136" height="136" as="geometry" />
        </mxCell>
        <mxCell id="11" value="Update High Score" style="rounded=1;arcSize=20;strokeWidth=2" parent="1" vertex="1">
          <mxGeometry x="1946" y="15.28" width="162" height="54" as="geometry" />
        </mxCell>
        <mxCell id="12" value="End Game" style="rounded=1;arcSize=20;strokeWidth=2" parent="1" vertex="1">
          <mxGeometry x="2158" y="52.28" width="102" height="54" as="geometry" />
        </mxCell>
        <mxCell id="13" value="End" style="whiteSpace=wrap;strokeWidth=2;" parent="1" vertex="1">
          <mxGeometry x="2311" y="52.28" width="86" height="54" as="geometry" />
        </mxCell>
        <mxCell id="14" value="" style="curved=1;startArrow=none;endArrow=block;exitX=1;exitY=0.5;entryX=0;entryY=0.5;" parent="1" source="2" target="3" edge="1">
          <mxGeometry relative="1" as="geometry">
            <Array as="points" />
          </mxGeometry>
        </mxCell>
        <mxCell id="15" value="" style="curved=1;startArrow=none;endArrow=block;exitX=0.5;exitY=1;entryX=0.5;entryY=0;entryDx=0;entryDy=0;exitDx=0;exitDy=0;" parent="1" source="xc72QBFo-l_HC5rTxeCe-25" target="xc72QBFo-l_HC5rTxeCe-28" edge="1">
          <mxGeometry relative="1" as="geometry">
            <Array as="points" />
            <mxPoint x="360.0000000000002" y="159.28" as="sourcePoint" />
            <mxPoint x="413.055439330544" y="265.72456066945597" as="targetPoint" />
          </mxGeometry>
        </mxCell>
        <mxCell id="16" value="Yes" style="curved=1;startArrow=none;endArrow=block;exitX=1;exitY=0.5;entryX=0;entryY=0.5;" parent="1" source="4" target="5" edge="1">
          <mxGeometry relative="1" as="geometry">
            <Array as="points" />
          </mxGeometry>
        </mxCell>
        <mxCell id="17" value="" style="curved=1;startArrow=none;endArrow=block;exitX=1;exitY=0.5;entryX=0;entryY=0.5;" parent="1" source="5" target="6" edge="1">
          <mxGeometry relative="1" as="geometry">
            <Array as="points" />
          </mxGeometry>
        </mxCell>
        <mxCell id="18" value="Yes" style="curved=1;startArrow=none;endArrow=block;exitX=1;exitY=0.5;entryX=0;entryY=0.5;" parent="1" source="6" target="7" edge="1">
          <mxGeometry relative="1" as="geometry">
            <Array as="points" />
          </mxGeometry>
        </mxCell>
        <mxCell id="19" value="No" style="curved=1;startArrow=none;endArrow=block;exitX=1;exitY=0.5;entryX=0;entryY=0.5;" parent="1" source="7" target="8" edge="1">
          <mxGeometry relative="1" as="geometry">
            <Array as="points" />
          </mxGeometry>
        </mxCell>
        <mxCell id="20" value="" style="curved=1;startArrow=none;endArrow=block;exitX=1;exitY=0.5;entryX=0;entryY=0.5;" parent="1" source="8" target="9" edge="1">
          <mxGeometry relative="1" as="geometry">
            <Array as="points" />
          </mxGeometry>
        </mxCell>
        <mxCell id="21" value="" style="curved=1;startArrow=none;endArrow=block;exitX=1;exitY=0.5;entryX=0;entryY=0.5;" parent="1" source="9" target="10" edge="1">
          <mxGeometry relative="1" as="geometry">
            <Array as="points" />
          </mxGeometry>
        </mxCell>
        <mxCell id="22" value="Yes" style="curved=1;startArrow=none;endArrow=block;exitX=1;exitY=0.33;entryX=0;entryY=0.51;" parent="1" source="10" target="11" edge="1">
          <mxGeometry relative="1" as="geometry">
            <Array as="points">
              <mxPoint x="1907" y="42.28" />
            </Array>
          </mxGeometry>
        </mxCell>
        <mxCell id="23" value="" style="curved=1;startArrow=none;endArrow=block;exitX=1;exitY=0.51;entryX=0;entryY=0.05;" parent="1" source="11" target="12" edge="1">
          <mxGeometry relative="1" as="geometry">
            <Array as="points">
              <mxPoint x="2133" y="42.28" />
            </Array>
          </mxGeometry>
        </mxCell>
        <mxCell id="24" value="No" style="curved=1;startArrow=none;endArrow=block;exitX=1;exitY=0.67;entryX=0;entryY=0.96;" parent="1" source="10" target="12" edge="1">
          <mxGeometry relative="1" as="geometry">
            <Array as="points">
              <mxPoint x="1907" y="116.28" />
              <mxPoint x="2133" y="116.28" />
            </Array>
          </mxGeometry>
        </mxCell>
        <mxCell id="25" value="" style="curved=1;startArrow=none;endArrow=block;exitX=1.01;exitY=0.5;entryX=0;entryY=0.5;" parent="1" source="12" target="13" edge="1">
          <mxGeometry relative="1" as="geometry">
            <Array as="points" />
          </mxGeometry>
        </mxCell>
        <mxCell id="xc72QBFo-l_HC5rTxeCe-25" value="MenuScene" style="rhombus;strokeWidth=2;whiteSpace=wrap;" vertex="1" parent="1">
          <mxGeometry x="330" y="15.280000000000001" width="159" height="159" as="geometry" />
        </mxCell>
        <mxCell id="xc72QBFo-l_HC5rTxeCe-26" value="" style="curved=1;startArrow=none;endArrow=block;exitX=1;exitY=0.5;entryX=0;entryY=0.5;entryDx=0;entryDy=0;exitDx=0;exitDy=0;" edge="1" parent="1" source="xc72QBFo-l_HC5rTxeCe-25" target="4">
          <mxGeometry relative="1" as="geometry">
            <Array as="points" />
            <mxPoint x="460.0000000000002" y="140" as="sourcePoint" />
            <mxPoint x="513.055439330544" y="246.444560669456" as="targetPoint" />
          </mxGeometry>
        </mxCell>
        <mxCell id="xc72QBFo-l_HC5rTxeCe-27" value="" style="curved=1;startArrow=none;endArrow=block;exitX=1;exitY=0.5;exitDx=0;exitDy=0;" edge="1" parent="1" source="3">
          <mxGeometry relative="1" as="geometry">
            <Array as="points" />
            <mxPoint x="499" y="105" as="sourcePoint" />
            <mxPoint x="330" y="90" as="targetPoint" />
          </mxGeometry>
        </mxCell>
        <mxCell id="xc72QBFo-l_HC5rTxeCe-28" value="ScoreScene" style="rhombus;strokeWidth=2;whiteSpace=wrap;" vertex="1" parent="1">
          <mxGeometry x="330" y="230" width="159" height="159" as="geometry" />
        </mxCell>
        <mxCell id="xc72QBFo-l_HC5rTxeCe-29" value="Back Button" style="rounded=1;arcSize=20;strokeWidth=2" vertex="1" parent="1">
          <mxGeometry x="540" y="290" width="136" height="54" as="geometry" />
        </mxCell>
        <mxCell id="xc72QBFo-l_HC5rTxeCe-30" value="" style="curved=1;startArrow=none;endArrow=block;entryX=0;entryY=0.5;entryDx=0;entryDy=0;exitX=0.967;exitY=0.455;exitDx=0;exitDy=0;exitPerimeter=0;" edge="1" parent="1" source="xc72QBFo-l_HC5rTxeCe-28" target="xc72QBFo-l_HC5rTxeCe-29">
          <mxGeometry relative="1" as="geometry">
            <Array as="points" />
            <mxPoint x="490" y="250" as="sourcePoint" />
            <mxPoint x="420" y="240" as="targetPoint" />
          </mxGeometry>
        </mxCell>
        <mxCell id="xc72QBFo-l_HC5rTxeCe-31" value="" style="curved=1;startArrow=none;endArrow=block;exitX=0.5;exitY=0;exitDx=0;exitDy=0;" edge="1" parent="1" source="xc72QBFo-l_HC5rTxeCe-29">
          <mxGeometry relative="1" as="geometry">
            <Array as="points" />
            <mxPoint x="600" y="280" as="sourcePoint" />
            <mxPoint x="450" y="130" as="targetPoint" />
          </mxGeometry>
        </mxCell>
      </root>
    </mxGraphModel>
  </diagram>
</mxfile>
